<?xml version="1.0" encoding="UTF-8" standalone="no"?>
<!-- Created with Inkscape (http://www.inkscape.org/) -->

<svg
   width="80mm"
   height="200mm"
   viewBox="0 0 80 200"
   version="1.1"
   id="svg5"
   xml:space="preserve"
   inkscape:version="1.2 (dc2aedaf03, 2022-05-15)"
   sodipodi:docname="body2.svg"
   xmlns:inkscape="http://www.inkscape.org/namespaces/inkscape"
   xmlns:sodipodi="http://sodipodi.sourceforge.net/DTD/sodipodi-0.dtd"
   xmlns="http://www.w3.org/2000/svg"
   xmlns:svg="http://www.w3.org/2000/svg"><sodipodi:namedview
     id="namedview7"
     pagecolor="#ffffff"
     bordercolor="#000000"
     borderopacity="0.25"
     inkscape:showpageshadow="2"
     inkscape:pageopacity="0.0"
     inkscape:pagecheckerboard="0"
     inkscape:deskcolor="#d1d1d1"
     inkscape:document-units="mm"
     showgrid="false"
     inkscape:zoom="1.5479925"
     inkscape:cx="135.33657"
     inkscape:cy="430.23464"
     inkscape:window-width="1920"
     inkscape:window-height="1094"
     inkscape:window-x="-11"
     inkscape:window-y="-11"
     inkscape:window-maximized="1"
     inkscape:current-layer="layer1"
     showguides="true" /><defs
     id="defs2"><inkscape:path-effect
       effect="bspline"
       id="path-effect9230"
       is_visible="true"
       lpeversion="1"
       weight="33.333333"
       steps="2"
       helper_size="0"
       apply_no_weight="true"
       apply_with_weight="true"
       only_selected="false" /><inkscape:path-effect
       effect="bspline"
       id="path-effect45223"
       is_visible="true"
       lpeversion="1"
       weight="33.333333"
       steps="2"
       helper_size="0"
       apply_no_weight="true"
       apply_with_weight="true"
       only_selected="false" /><inkscape:path-effect
       effect="bspline"
       id="path-effect45219"
       is_visible="true"
       lpeversion="1"
       weight="33.333333"
       steps="2"
       helper_size="0"
       apply_no_weight="true"
       apply_with_weight="true"
       only_selected="false" /><inkscape:path-effect
       effect="bspline"
       id="path-effect37057"
       is_visible="true"
       lpeversion="1"
       weight="33.333333"
       steps="2"
       helper_size="0"
       apply_no_weight="true"
       apply_with_weight="true"
       only_selected="false" /><inkscape:path-effect
       effect="bspline"
       id="path-effect35557"
       is_visible="true"
       lpeversion="1"
       weight="33.333333"
       steps="2"
       helper_size="0"
       apply_no_weight="true"
       apply_with_weight="true"
       only_selected="false" /><inkscape:path-effect
       effect="bspline"
       id="path-effect30471"
       is_visible="true"
       lpeversion="1"
       weight="33.333333"
       steps="2"
       helper_size="0"
       apply_no_weight="true"
       apply_with_weight="true"
       only_selected="false" /><inkscape:path-effect
       effect="bspline"
       id="path-effect8625"
       is_visible="true"
       lpeversion="1"
       weight="33.333333"
       steps="2"
       helper_size="0"
       apply_no_weight="true"
       apply_with_weight="true"
       only_selected="false" /><inkscape:path-effect
       effect="bspline"
       id="path-effect5641"
       is_visible="true"
       lpeversion="1"
       weight="33.333333"
       steps="2"
       helper_size="0"
       apply_no_weight="true"
       apply_with_weight="true"
       only_selected="false" /></defs><g
     inkscape:label="Layer 1"
     inkscape:groupmode="layer"
     id="layer1"><path
       fill="#17a7b7"
       d="m 79.838104,8.0948492 c -1.431126,2.6079208 -0.631301,6.7983638 -0.923384,9.6281518 -0.287451,2.812121 -1.666814,4.263603 -2.020136,6.096143 -0.341206,1.854578 0.322287,4.103517 1.856001,5.824804 1.516992,1.716932 3.887457,2.901839 5.51026,2.023413 1.644143,-0.891721 2.549829,-3.882121 4.177117,-5.872739 1.631907,-2.008276 3.990013,-3.034422 5.346789,-5.152247 1.356789,-2.117833 1.738224,-5.358318 0.710134,-8.400641 -1.044796,-3.0466634 -3.477754,-5.9084669 -6.522972,-6.8354963 -3.04521,-0.9270624 -6.702675,0.08071 -8.133809,2.6886115 z"
       id="path366"
       style="opacity:0.802326;fill:#1c9fe3;fill-opacity:1;stroke-width:0.177654" /><path
       fill="#17a7b7"
       d="m 79.838104,44.284034 c -1.431126,-2.607922 -0.631301,-6.798365 -0.923384,-9.628153 -0.287451,-2.812121 -1.666814,-4.263603 -2.020136,-6.096143 -0.341206,-1.854578 0.322287,-4.103517 1.856001,-5.824804 1.516992,-1.716932 3.887457,-2.901839 5.51026,-2.023413 1.644143,0.891721 2.549829,3.882121 4.177117,5.872739 1.631907,2.008276 3.990013,3.034422 5.346789,5.152247 1.356789,2.117833 1.738224,5.358318 0.710134,8.400641 -1.044796,3.046664 -3.477754,5.908469 -6.522972,6.835499 -3.04521,0.927063 -6.702675,-0.08071 -8.133809,-2.688613 z"
       id="path2653"
       style="opacity:0.802326;fill:#1c9fe3;fill-opacity:1;stroke-width:0.177654" /><path
       fill="#17a7b7"
       d="m 0.01324461,7.5656815 c 1.43112499,2.6079195 0.63130067,6.7983625 0.92338331,9.6281505 0.28745098,2.812121 1.66681298,4.263603 2.02013498,6.096143 0.3412057,1.854578 -0.322287,4.103517 -1.856,5.824804 -1.51699097,1.716932 -3.8874549,2.901839 -5.510257,2.023413 -1.6441417,-0.891721 -2.5498274,-3.882121 -4.1771146,-5.872739 -1.6319043,-2.008276 -3.9900103,-3.034422 -5.3467863,-5.152247 -1.356789,-2.117833 -1.738224,-5.358318 -0.710134,-8.400641 1.044796,-3.0466621 3.477754,-5.9084646 6.522969,-6.8354938 3.0452086,-0.927063 6.7026715,0.08071 8.13380461,2.6886103 z"
       id="path2694"
       style="opacity:0.802326;fill:#1c9fe3;fill-opacity:1;stroke-width:0.177654" /><path
       fill="#17a7b7"
       d="M 0.01324461,43.754866 C 1.4443696,41.146943 0.64454528,36.9565 0.93662792,34.126712 1.2240789,31.314591 2.6034409,29.863109 2.9567629,28.030569 c 0.3412057,-1.854578 -0.322287,-4.103517 -1.856,-5.824804 -1.51699097,-1.716932 -3.8874549,-2.901839 -5.510257,-2.023413 -1.6441417,0.891721 -2.5498274,3.882121 -4.1771146,5.872739 -1.6319043,2.008276 -3.9900103,3.034422 -5.3467863,5.152247 -1.356789,2.117833 -1.738224,5.358318 -0.710134,8.400641 1.044796,3.046665 3.477754,5.908471 6.522969,6.835501 3.0452086,0.927063 6.7026715,-0.08071 8.13380461,-2.688614 z"
       id="path2696"
       style="opacity:0.802326;fill:#1c9fe3;fill-opacity:1;stroke-width:0.177654" /><path
       fill="#17a7b7"
       d="m 79.508599,69.47822 c -1.431126,2.607922 -0.631301,6.798365 -0.923384,9.628153 -0.287451,2.812121 -1.666814,4.263603 -2.020136,6.096143 -0.341206,1.854578 0.322287,4.103517 1.856001,5.824805 1.516992,1.716931 3.887457,2.901835 5.51026,2.023411 1.644143,-0.891717 2.549829,-3.88212 4.177117,-5.872738 1.631907,-2.008276 3.990013,-3.034422 5.346789,-5.152247 1.356789,-2.117833 1.738224,-5.358318 0.710134,-8.400641 -1.044796,-3.046664 -3.477754,-5.908469 -6.522972,-6.835499 -3.04521,-0.927063 -6.702675,0.08071 -8.133809,2.688613 z"
       id="path2922"
       style="opacity:0.802326;fill:#1c9fe3;fill-opacity:1;stroke-width:0.177654" /><path
       fill="#17a7b7"
       d="m 79.508599,105.66744 c -1.431126,-2.60794 -0.631301,-6.798401 -0.923384,-9.628186 -0.287451,-2.812125 -1.666814,-4.263606 -2.020136,-6.096144 -0.341206,-1.854578 0.322287,-4.103517 1.856001,-5.824804 1.516992,-1.716932 3.887457,-2.901839 5.51026,-2.023413 1.644143,0.891721 2.549829,3.882121 4.177117,5.872739 1.631907,2.008275 3.990013,3.034422 5.346789,5.15225 1.356789,2.117825 1.738224,5.358317 0.710134,8.400648 -1.044796,3.04668 -3.477754,5.9085 -6.522972,6.83553 -3.04521,0.92707 -6.702675,-0.0807 -8.133809,-2.68862 z"
       id="path2924"
       style="opacity:0.802326;fill:#1c9fe3;fill-opacity:1;stroke-width:0.177654" /><path
       fill="#17a7b7"
       d="m -7.2028131,85.911681 c -2.3285498,2.091213 -4.4645179,4.084379 -4.0443189,5.897822 0.437694,1.813442 3.4490491,3.447166 5.0422664,5.652709 1.6107241,2.205562 1.8033162,4.982888 3.0813903,5.734398 1.2605596,0.73517 3.60662593,-0.53913 6.7405367,-1.06192 3.1514132,-0.52279 7.0731776,-0.26139 8.4738046,-1.74808 1.383125,-1.486694 0.227602,-4.705153 -1.400627,-6.894358 C 9.0445087,91.303044 6.9260531,90.143085 5.0702122,87.986546 3.2318875,85.829995 1.638668,82.67687 -0.39224421,82.17041 -2.4231614,81.680285 -4.8917716,83.83683 -7.2028131,85.911681 Z"
       id="path2296"
       style="opacity:0.802326;fill:#1c9fe3;fill-opacity:1;stroke-width:0.169124" /></g></svg>
