<?xml version="1.0" encoding="UTF-8" standalone="no"?>
<!-- Created with Inkscape (http://www.inkscape.org/) -->

<svg
   width="80mm"
   height="200mm"
   viewBox="0 0 80 200"
   version="1.1"
   id="svg5"
   xml:space="preserve"
   inkscape:version="1.2 (dc2aedaf03, 2022-05-15)"
   sodipodi:docname="body.svg"
   xmlns:inkscape="http://www.inkscape.org/namespaces/inkscape"
   xmlns:sodipodi="http://sodipodi.sourceforge.net/DTD/sodipodi-0.dtd"
   xmlns="http://www.w3.org/2000/svg"
   xmlns:svg="http://www.w3.org/2000/svg"><sodipodi:namedview
     id="namedview7"
     pagecolor="#ffffff"
     bordercolor="#000000"
     borderopacity="0.25"
     inkscape:showpageshadow="2"
     inkscape:pageopacity="0.0"
     inkscape:pagecheckerboard="0"
     inkscape:deskcolor="#d1d1d1"
     inkscape:document-units="mm"
     showgrid="false"
     inkscape:zoom="1.5479925"
     inkscape:cx="-5.4909827"
     inkscape:cy="175.71145"
     inkscape:window-width="1920"
     inkscape:window-height="1094"
     inkscape:window-x="-11"
     inkscape:window-y="-11"
     inkscape:window-maximized="1"
     inkscape:current-layer="layer1"
     showguides="true" /><defs
     id="defs2"><inkscape:path-effect
       effect="bspline"
       id="path-effect9230"
       is_visible="true"
       lpeversion="1"
       weight="33.333333"
       steps="2"
       helper_size="0"
       apply_no_weight="true"
       apply_with_weight="true"
       only_selected="false" /><inkscape:path-effect
       effect="bspline"
       id="path-effect45223"
       is_visible="true"
       lpeversion="1"
       weight="33.333333"
       steps="2"
       helper_size="0"
       apply_no_weight="true"
       apply_with_weight="true"
       only_selected="false" /><inkscape:path-effect
       effect="bspline"
       id="path-effect45219"
       is_visible="true"
       lpeversion="1"
       weight="33.333333"
       steps="2"
       helper_size="0"
       apply_no_weight="true"
       apply_with_weight="true"
       only_selected="false" /><inkscape:path-effect
       effect="bspline"
       id="path-effect37057"
       is_visible="true"
       lpeversion="1"
       weight="33.333333"
       steps="2"
       helper_size="0"
       apply_no_weight="true"
       apply_with_weight="true"
       only_selected="false" /><inkscape:path-effect
       effect="bspline"
       id="path-effect35557"
       is_visible="true"
       lpeversion="1"
       weight="33.333333"
       steps="2"
       helper_size="0"
       apply_no_weight="true"
       apply_with_weight="true"
       only_selected="false" /><inkscape:path-effect
       effect="bspline"
       id="path-effect30471"
       is_visible="true"
       lpeversion="1"
       weight="33.333333"
       steps="2"
       helper_size="0"
       apply_no_weight="true"
       apply_with_weight="true"
       only_selected="false" /><inkscape:path-effect
       effect="bspline"
       id="path-effect8625"
       is_visible="true"
       lpeversion="1"
       weight="33.333333"
       steps="2"
       helper_size="0"
       apply_no_weight="true"
       apply_with_weight="true"
       only_selected="false" /><inkscape:path-effect
       effect="bspline"
       id="path-effect5641"
       is_visible="true"
       lpeversion="1"
       weight="33.333333"
       steps="2"
       helper_size="0"
       apply_no_weight="true"
       apply_with_weight="true"
       only_selected="false" /></defs><g
     inkscape:label="Layer 1"
     inkscape:groupmode="layer"
     id="layer1"><path
       fill="#17a7b7"
       d="m 70.842265,8.0948492 c -1.431126,2.6079208 -0.631301,6.7983638 -0.923384,9.6281518 -0.287451,2.812121 -1.666814,4.263603 -2.020136,6.096143 -0.341206,1.854578 0.322287,4.103517 1.856001,5.824804 1.516992,1.716932 3.887457,2.901839 5.51026,2.023413 1.644143,-0.891721 2.549829,-3.882121 4.177117,-5.872739 1.631907,-2.008276 3.990013,-3.034422 5.346789,-5.152247 1.356789,-2.117833 1.738224,-5.358318 0.710134,-8.400641 -1.044796,-3.0466634 -3.477754,-5.9084669 -6.522972,-6.8354963 -3.04521,-0.9270624 -6.702675,0.08071 -8.133809,2.6886115 z"
       id="path366"
       style="opacity:0.802326;fill:#1c9fe3;fill-opacity:1;stroke-width:0.177654" /><path
       fill="#17a7b7"
       d="m 14.19372,136.73571 c 0.54109,-2.31868 -0.317842,-4.36257 -0.549393,-6.60271 -0.243491,-2.22097 0.146961,-4.6707 -1.13544,-5.81433 -1.265125,-1.14946 -4.1911796,-1.01198 -7.4292028,-1.16333 -3.2380253,-0.15135 -6.7880155,-0.59152 -8.8241916,0.64003 -2.058818,1.22403 -2.609172,4.10644 -2.433107,6.50163 0.170712,2.38185 1.062505,4.26316 2.586803,5.32529 1.524293,1.06212 3.66382416,1.31088 6.0040781,2.59807 2.3455963,1.30053 4.8746294,3.6453 7.0983766,3.51722 2.2291037,-0.11476 4.1529257,-2.70238 4.6820767,-5.00187 z"
       id="path413"
       style="opacity:0.802326;fill:#1c9fe3;fill-opacity:1;stroke-width:0.161799" /><path
       fill="#17a7b7"
       d="m 57.633582,135.60501 c -0.602661,-2.12845 0.354004,-4.00465 0.611901,-6.061 0.271204,-2.03876 -0.163682,-4.2875 1.264639,-5.33731 1.409079,-1.05515 4.66808,-0.92895 8.274542,-1.06787 3.606465,-0.13894 7.560397,-0.543 9.82826,0.58751 2.293082,1.12361 2.906054,3.76954 2.709958,5.96821 -0.190138,2.18644 -1.183405,3.9134 -2.881143,4.88839 -1.697739,0.97498 -4.080716,1.20333 -6.687256,2.38492 -2.612492,1.19383 -5.429294,3.34622 -7.906075,3.22865 -2.482741,-0.10534 -4.625468,-2.48066 -5.214826,-4.5915 z"
       id="path927"
       style="opacity:0.802326;fill:#1c9fe3;fill-opacity:1;stroke-width:0.163601" /><path
       fill="#17a7b7"
       d="m 70.842265,44.284034 c -1.431126,-2.607922 -0.631301,-6.798365 -0.923384,-9.628153 -0.287451,-2.812121 -1.666814,-4.263603 -2.020136,-6.096143 -0.341206,-1.854578 0.322287,-4.103517 1.856001,-5.824804 1.516992,-1.716932 3.887457,-2.901839 5.51026,-2.023413 1.644143,0.891721 2.549829,3.882121 4.177117,5.872739 1.631907,2.008276 3.990013,3.034422 5.346789,5.152247 1.356789,2.117833 1.738224,5.358318 0.710134,8.400641 -1.044796,3.046664 -3.477754,5.908469 -6.522972,6.835499 -3.04521,0.927063 -6.702675,-0.08071 -8.133809,-2.688613 z"
       id="path2653"
       style="opacity:0.802326;fill:#1c9fe3;fill-opacity:1;stroke-width:0.177654" /><path
       fill="#17a7b7"
       d="m 0.01324461,7.5656815 c 1.43112499,2.6079195 0.63130067,6.7983625 0.92338331,9.6281505 0.28745098,2.812121 1.66681298,4.263603 2.02013498,6.096143 0.3412057,1.854578 -0.322287,4.103517 -1.856,5.824804 -1.51699097,1.716932 -3.8874549,2.901839 -5.510257,2.023413 -1.6441417,-0.891721 -2.5498274,-3.882121 -4.1771146,-5.872739 -1.6319043,-2.008276 -3.9900103,-3.034422 -5.3467863,-5.152247 -1.356789,-2.117833 -1.738224,-5.358318 -0.710134,-8.400641 1.044796,-3.0466621 3.477754,-5.9084646 6.522969,-6.8354938 3.0452086,-0.927063 6.7026715,0.08071 8.13380461,2.6886103 z"
       id="path2694"
       style="opacity:0.802326;fill:#1c9fe3;fill-opacity:1;stroke-width:0.177654" /><path
       fill="#17a7b7"
       d="M 0.01324461,43.754866 C 1.4443696,41.146943 0.64454528,36.9565 0.93662792,34.126712 1.2240789,31.314591 2.6034409,29.863109 2.9567629,28.030569 c 0.3412057,-1.854578 -0.322287,-4.103517 -1.856,-5.824804 -1.51699097,-1.716932 -3.8874549,-2.901839 -5.510257,-2.023413 -1.6441417,0.891721 -2.5498274,3.882121 -4.1771146,5.872739 -1.6319043,2.008276 -3.9900103,3.034422 -5.3467863,5.152247 -1.356789,2.117833 -1.738224,5.358318 -0.710134,8.400641 1.044796,3.046665 3.477754,5.908471 6.522969,6.835501 3.0452086,0.927063 6.7026715,-0.08071 8.13380461,-2.688614 z"
       id="path2696"
       style="opacity:0.802326;fill:#1c9fe3;fill-opacity:1;stroke-width:0.177654" /><path
       fill="#17a7b7"
       d="m 77.921098,69.47822 c -1.431126,2.607922 -0.631301,6.798365 -0.923384,9.628153 -0.287451,2.812121 -1.666814,4.263603 -2.020136,6.096143 -0.341206,1.854578 0.322287,4.103517 1.856001,5.824805 1.516992,1.716931 3.887457,2.901835 5.51026,2.023411 1.644143,-0.891717 2.549829,-3.88212 4.177117,-5.872738 1.631907,-2.008276 3.990013,-3.034422 5.346789,-5.152247 1.356789,-2.117833 1.738224,-5.358318 0.710134,-8.400641 -1.044796,-3.046664 -3.477754,-5.908469 -6.522972,-6.835499 -3.04521,-0.927063 -6.702675,0.08071 -8.133809,2.688613 z"
       id="path2922"
       style="opacity:0.802326;fill:#1c9fe3;fill-opacity:1;stroke-width:0.177654" /><path
       fill="#17a7b7"
       d="M 77.921098,105.66744 C 76.489972,103.0595 77.289797,98.869039 76.997714,96.039254 76.710263,93.227129 75.3309,91.775648 74.977578,89.94311 c -0.341206,-1.854578 0.322287,-4.103517 1.856001,-5.824804 1.516992,-1.716932 3.887457,-2.901839 5.51026,-2.023413 1.644143,0.891721 2.549829,3.882121 4.177117,5.872739 1.631907,2.008275 3.990013,3.034422 5.346789,5.15225 1.356789,2.117825 1.738224,5.358317 0.710134,8.400648 -1.044796,3.04668 -3.477754,5.9085 -6.522972,6.83553 -3.04521,0.92707 -6.702675,-0.0807 -8.133809,-2.68862 z"
       id="path2924"
       style="opacity:0.802326;fill:#1c9fe3;fill-opacity:1;stroke-width:0.177654" /><path
       fill="#17a7b7"
       d="m 0.53925609,85.126834 c 1.63226471,1.370301 3.12953301,2.676355 2.83498291,3.864644 -0.3068144,1.188288 -2.41771131,2.258813 -3.53452296,3.70403 -1.12908364,1.445231 -1.26408664,3.265117 -2.15998984,3.757556 -0.8836259,0.481739 -2.5281691,-0.353268 -4.7249745,-0.69584 -2.2090744,-0.342568 -4.9581497,-0.171278 -5.9399597,-1.145456 -0.969542,-0.974181 -0.159545,-3.083129 0.98181,-4.517641 1.153623,-1.434515 2.6386161,-2.194597 3.9395215,-3.607704 1.2886269,-1.413116 2.4054402,-3.479252 3.829067,-3.811118 1.4236304,-0.321163 3.1540742,1.091948 4.77406559,2.451529 z"
       id="path2296"
       style="opacity:0.802326;fill:#1c9fe3;fill-opacity:1;stroke-width:0.114622" /><path
       fill="#17a7b7"
       d="m 0.53959993,54.982243 c 1.63226467,1.370295 3.12953297,2.676343 2.83498287,3.864626 -0.3068144,1.188283 -2.41771127,2.258808 -3.53452292,3.704014 -1.12908368,1.445226 -1.26408668,3.265103 -2.15998988,3.75754 -0.8836259,0.48174 -2.5281691,-0.353271 -4.7249745,-0.695833 -2.2090744,-0.342568 -4.9581495,-0.171283 -5.9399595,-1.14546 -0.969542,-0.974174 -0.159545,-3.083115 0.98181,-4.517617 1.153623,-1.434508 2.6386159,-2.194587 3.9395213,-3.607687 1.2886269,-1.41311 2.4054402,-3.479237 3.829067,-3.811101 1.4236304,-0.321162 3.1540742,1.091943 4.77406563,2.451518 z"
       id="path1229"
       style="opacity:0.802326;fill:#1c9fe3;fill-opacity:1;stroke-width:0.114622" /><path
       style="opacity:0.802326;fill:#1d9fe4;fill-opacity:0.803922;stroke:none;stroke-width:1.80899;stroke-linecap:square;stroke-opacity:0.953202"
       d="m -0.96887966,177.11727 c 0.25890635,-0.0926 0.77657283,-0.27789 1.53321422,-0.43225 0.75664144,-0.15436 1.75213574,-0.27785 2.40919724,-0.33959 0.6570615,-0.0617 0.9756199,-0.0617 1.2643443,-0.0411 0.2887244,0.0206 0.547543,0.0618 0.7765237,0.10295 0.2289807,0.0412 0.4280673,0.0823 0.8661082,0.24703 0.4380409,0.1647 1.1149757,0.45286 1.7521049,0.79251 0.6371292,0.33965 1.2344274,0.73072 1.7521024,1.04974 0.517675,0.31903 0.9556947,0.56601 1.4733677,0.86447 0.517672,0.29846 1.114967,0.64836 1.692357,1.07035 0.577389,0.42198 1.134865,0.91596 1.732181,1.44082 0.597315,0.52487 1.234435,1.08059 2.03086,1.72895 0.796426,0.64836 1.752098,1.38932 2.707813,1.98619 0.955715,0.59687 1.911394,1.04968 2.717764,1.35839 0.80637,0.3087 1.463394,0.47336 2.379229,0.45272 0.915834,-0.0206 2.09052,-0.22647 3.613592,-1.00863 1.523073,-0.78215 3.394605,-2.14059 4.818191,-3.23148 1.423587,-1.09089 2.399165,-1.91418 3.424597,-2.60372 1.025432,-0.68955 2.100563,-1.24527 3.056322,-1.59518 0.955758,-0.3499 1.791971,-0.49398 2.628217,-0.62776 0.836246,-0.13379 1.672461,-0.25729 2.737723,-0.11314 1.065262,0.14415 2.359408,0.5558 3.354926,0.96751 0.995519,0.4117 1.692366,0.82335 2.578385,1.31733 0.886018,0.49399 1.961157,1.07029 3.016411,1.65691 1.055253,0.58662 2.09057,1.18351 3.128601,1.69606 1.038031,0.51256 2.078742,0.94081 2.954459,1.1135 0.875716,0.17269 1.586617,0.09 2.790021,-0.25083 1.203404,-0.34082 2.899329,-0.93971 4.546474,-1.54356 1.647145,-0.60385 3.245454,-1.21264 4.521061,-1.63619 1.275607,-0.42356 2.228357,-0.66186 3.100216,-0.87559 0.87186,-0.21374 1.66273,-0.40289 2.555592,-0.64268 0.892863,-0.2398 1.887647,-0.53021 2.954973,-0.47561 1.067326,0.0546 2.206915,0.45405 2.834223,1.92341 0.627308,1.46936 0.742554,4.00832 0.76035,8.82842 0.0178,4.82011 -0.06184,11.92103 -2.6501,15.47143 -2.588256,3.5504 -7.685191,3.5504 -15.529958,3.75623 -7.844767,0.20582 -18.436831,0.61747 -29.387597,0.6998 -10.950766,0.0823 -22.259586,-0.16465 -30.7812557,-0.20582 -8.5216695,-0.0412 -14.2557192,0.12349 -16.1672423,-2.34642 -1.911524,-2.46991 -1.74e-4,-7.57434 2.2696241,-13.0906 2.2697979,-5.51625 4.8979011,-11.44397 6.2120115,-14.40797 1.3141104,-2.96399 1.3141104,-2.96393 1.57301674,-3.05658 z"
       id="path45221"
       inkscape:path-effect="#path-effect45223"
       inkscape:original-d="m -1.227786,177.20992 c 0.51792908,-0.18497 1.03559662,-0.37021 1.55300271,-0.55573 0.99579609,-0.12323 1.99129099,-0.24672 2.98654399,-0.37049 0.3188326,2.8e-4 0.637391,2.8e-4 0.955694,0 0.2591007,0.0415 0.5179295,0.0826 0.7765015,0.1235 0.1993684,0.0415 0.3984674,0.0826 0.5973089,0.12349 0.6772251,0.28844 1.3541614,0.57659 2.0308499,0.86448 0.5975824,0.39135 1.1948783,0.78242 1.7919262,1.17322 0.4382957,0.24727 0.8763148,0.49426 1.3140798,0.74098 0.597582,0.35019 1.194878,0.70009 1.791925,1.04973 0.557761,0.49427 1.115239,0.98824 1.672464,1.48195 0.637405,0.55602 1.274522,1.11175 1.911389,1.66721 0.955975,0.74127 1.911651,1.48223 2.867082,2.22295 0.955975,0.45309 1.91165,0.90591 2.867083,1.35846 0.657314,0.16494 1.31434,0.32959 1.971119,0.49398 1.174992,-0.20556 2.349678,-0.41138 3.524121,-0.61748 1.871867,-1.35822 3.743397,-2.71666 5.614703,-4.07539 0.975885,-0.82307 1.95147,-1.64635 2.926812,-2.46993 1.07544,-0.55549 2.150574,-1.11121 3.225469,-1.66721 0.836511,-0.14382 1.672725,-0.28789 2.508698,-0.43224 0.83651,-0.12323 1.672725,-0.24673 2.508696,-0.37049 1.294457,0.41193 2.588602,0.82358 3.882507,1.23497 0.697137,0.41193 1.393983,0.82358 2.090579,1.23497 1.07544,0.57659 2.150577,1.1529 3.225469,1.72895 1.035616,0.59718 2.070933,1.19407 3.106006,1.7907 1.040985,0.42852 2.081697,0.85677 3.122095,1.28474 0.711127,-0.0824 1.422024,-0.16513 2.132659,-0.2481 1.696253,-0.59864 3.392178,-1.19753 5.087872,-1.7967 1.598604,-0.60853 3.196912,-1.21732 4.795015,-1.82639 0.953067,-0.23805 1.905816,-0.47635 2.858355,-0.71492 0.791177,-0.1889 1.582047,-0.37805 2.372691,-0.56747 0.995098,-0.29017 1.989883,-0.58058 2.984459,-0.87127 1.13993,0.39974 2.279521,0.79918 3.418925,1.19839 0.115516,2.53935 0.230763,5.07831 0.345748,7.61706 -0.07938,7.10147 -0.15902,14.20239 -0.238923,21.30319 -5.096874,2.6e-4 -10.193809,2.6e-4 -15.291107,0 -10.592225,0.41193 -21.184289,0.82358 -31.776827,1.23496 -11.309011,-0.24672 -22.617831,-0.49372 -33.9271384,-0.74098 -5.7340177,0.16494 -11.4680674,0.3296 -17.2024936,0.49399 1.911688,-5.10437 3.823039,-10.2088 5.7341647,-15.3136 2.6284729,-5.92769 5.2565791,-11.85541 7.8844763,-17.78354 z"
       sodipodi:nodetypes="cccccccccccccccccccccccccccccccccccccccccc" /><path
       style="opacity:1;fill:#1d9fe4;fill-opacity:1;stroke:none;stroke-width:1.85116;stroke-linecap:square;stroke-opacity:0.953202"
       d="m -3.5548261,186.37948 c 1.8748983,-4.48196 2.5353372,-4.72367 3.18515943,-4.90495 0.64982228,-0.18128 1.28894337,-0.30214 1.91745927,-0.36255 0.6285159,-0.0604 1.2463326,-0.0604 1.8109129,-0.0402 0.5645803,0.0202 1.0758779,0.0604 1.6617734,0.17126 0.5858955,0.11082 1.2463194,0.2921 1.8641548,0.46332 0.6178355,0.17122 1.193043,0.33237 1.789575,0.56405 0.596532,0.23169 1.2143485,0.53383 1.7895683,0.85614 0.57522,0.32232 1.107822,0.66474 1.832183,1.11797 0.72436,0.45322 1.640429,1.01722 2.332832,1.43015 0.692402,0.41293 1.161089,0.67478 1.597831,0.93666 0.436742,0.26187 0.841521,0.52373 1.352839,0.75533 0.511318,0.2316 1.129136,0.43302 1.693708,0.61431 0.564572,0.18129 1.075869,0.34243 1.576517,0.45318 0.500648,0.11076 0.990641,0.17119 1.693698,0.26184 0.703057,0.0906 1.619129,0.2115 2.716285,0.18125 1.097156,-0.0303 2.375396,-0.21154 3.334084,-0.38277 0.958688,-0.17123 1.597808,-0.33237 2.876058,-0.86617 1.27825,-0.53381 3.195611,-1.44024 4.484553,-2.01432 1.288943,-0.57408 1.94937,-0.81579 2.758973,-1.04743 0.809602,-0.23165 1.768282,-0.45322 2.599199,-0.56398 0.830917,-0.11076 1.533948,-0.11076 2.237024,-0.0201 0.703076,0.0907 1.406111,0.27197 2.109165,0.46333 0.703054,0.19137 1.406087,0.3928 2.567196,0.74532 1.161109,0.35251 2.780218,0.85608 3.845433,1.13805 1.065215,0.28197 1.576511,0.3424 2.215657,0.44313 0.639147,0.10072 1.406093,0.24173 2.609767,0.18124 1.203675,-0.0605 2.844084,-0.32233 4.047766,-0.57414 1.203683,-0.2518 1.970627,-0.49351 3.163681,-0.92659 1.193055,-0.43309 2.812157,-1.05751 4.196951,-1.62153 1.384793,-0.56401 2.53521,-1.06758 3.71765,-1.47044 1.182441,-0.40286 2.39677,-0.705 3.792247,-0.95679 1.395477,-0.25178 2.971975,-0.45321 4.303546,-0.48339 1.331572,-0.0302 2.41808,0.11083 3.16375,0.29219 0.745669,0.18136 1.150446,0.40293 1.768278,0.77559 0.617832,0.37267 1.448686,0.89638 2.140937,4.98555 0.692251,4.08918 1.246157,11.74343 0.777574,15.57048 -0.468583,3.82706 -1.959866,3.82706 -10.439194,4.06878 -8.479328,0.24172 -23.946046,0.72514 -38.390593,1.04744 -14.444547,0.32229 -27.86608,0.48343 -36.15354,0.56401 -8.2874598,0.0806 -11.440455,0.0806 -11.4725475,-4.28043 -0.032092,-4.36101 3.0569912,-13.08282 4.9318894,-17.56477 z"
       id="path45217"
       inkscape:path-effect="#path-effect45219"
       inkscape:original-d="m -2.3405265,182.1393 c 0.6607178,-0.24145 1.3211556,-0.48317 1.98131365,-0.72515 0.63942603,-0.1206 1.27854668,-0.24146 1.91740015,-0.36258 0.6181212,2.7e-4 1.2359379,2.7e-4 1.8534869,0 0.5115967,0.0405 1.0228932,0.0808 1.5339202,0.12086 0.6607308,0.18156 1.3211554,0.36284 1.9813136,0.54386 0.5755114,0.16142 1.1507198,0.32256 1.72566,0.48344 0.6181214,0.30242 1.2359383,0.60456 1.853485,0.90644 0.532903,0.34271 1.065504,0.68514 1.597835,1.0273 0.916389,0.56429 1.832462,1.12828 2.748273,1.69203 0.468987,0.26213 0.937676,0.52398 1.406094,0.78558 0.405072,0.26213 0.809848,0.52399 1.214353,0.78558 0.618121,0.2017 1.235939,0.40313 1.853487,0.6043 0.511597,0.16141 1.022894,0.32255 1.533921,0.48343 0.490291,0.0607 0.980283,0.12113 1.470006,0.18129 0.91639,0.12113 1.832463,0.24198 2.748274,0.36258 1.278572,-0.18103 2.556813,-0.36231 3.8348,-0.54387 0.639426,-0.16088 1.278546,-0.32202 1.9174,-0.48343 1.917718,-0.9062 3.835081,-1.81262 5.752201,-2.71933 0.660732,-0.24145 1.321156,-0.48317 1.981314,-0.72515 0.959,-0.22132 1.917679,-0.44289 2.876099,-0.66472 0.703344,2.6e-4 1.406375,2.6e-4 2.109142,0 0.70334,0.18155 1.406373,0.36284 2.10914,0.54386 0.70334,0.2017 1.406373,0.40313 2.109138,0.6043 1.619451,0.50385 3.238559,1.00742 4.857416,1.51073 0.511597,0.0607 1.022892,0.12113 1.53392,0.18129 0.767255,0.14127 1.534201,0.28227 2.300879,0.42301 1.640756,-0.26161 3.281166,-0.52346 4.921329,-0.78559 0.767254,-0.24146 1.534199,-0.48317 2.300879,-0.72515 1.619451,-0.62419 3.238555,-1.24861 4.857414,-1.87331 1.150744,-0.50333 2.30116,-1.0069 3.451321,-1.51074 1.214658,-0.30189 2.428987,-0.60403 3.64306,-0.90644 1.576841,-0.20117 3.153339,-0.4026 4.729586,-0.6043 1.086829,0.14127 2.173337,0.28227 3.259583,0.42301 0.405072,0.22185 0.809849,0.44342 1.214353,0.66472 0.831169,0.524 1.662025,1.04771 2.492619,1.57117 0.554207,7.65481 1.108113,15.30906 1.661748,22.96319 -1.491061,2.7e-4 -2.982344,2.7e-4 -4.473935,0 -15.467056,0.48371 -30.933775,0.96713 -46.401083,1.45031 -13.421791,0.16141 -26.843324,0.32255 -40.2654054,0.48343 -3.1528414,2.7e-4 -6.3058366,2.7e-4 -9.4591756,0 3.0894875,-8.72189 6.1785706,-17.4437 9.2674355,-26.16595 z" /></g></svg>
